<svg xmlns="http://www.w3.org/2000/svg" viewBox="0 0 600 380" width="100%" height="100%">
  <defs>
    <linearGradient id="bgGrad2" x1="0%" y1="0%" x2="100%" y2="100%">
      <stop offset="0%" stop-color="#0a4024"/>
      <stop offset="100%" stop-color="#0f5a34"/>
    </linearGradient>
  </defs>
  <rect width="600" height="380" fill="url(#bgGrad2)"/>
  <circle cx="120" cy="90" r="140" fill="rgba(200,149,36,0.12)"/>
  <circle cx="500" cy="280" r="180" fill="rgba(255,255,255,0.05)"/>
  
  <rect x="40" y="35" width="220" height="30" rx="6" fill="#c89524"/>
  <text x="50" y="55" fill="#ffffff" font-family="'Plus Jakarta Sans', sans-serif" font-weight="700" font-size="12" letter-spacing="1">DOKUMENTASI KEGIATAN</text>
  
  <g transform="translate(60, 95)">
    <!-- Tiang Bendera & Halaman Madrasah -->
    <rect x="238" y="10" width="6" height="150" fill="#cbd5e1"/>
    <!-- Bendera Merah Putih -->
    <rect x="244" y="15" width="45" height="15" fill="#ef4444"/>
    <rect x="244" y="30" width="45" height="15" fill="#ffffff"/>
    
    <!-- Barisan Santri/Siswa Berkopiah -->
    <!-- Baris 1 -->
    <rect x="90" y="70" width="16" height="6" rx="2" fill="#0f172a"/>
    <circle cx="98" cy="88" r="10" fill="#f8fafc"/>
    <rect x="88" y="100" width="20" height="40" rx="3" fill="#ffffff"/>
    
    <rect x="130" y="70" width="16" height="6" rx="2" fill="#0f172a"/>
    <circle cx="138" cy="88" r="10" fill="#f8fafc"/>
    <rect x="128" y="100" width="20" height="40" rx="3" fill="#ffffff"/>

    <rect x="170" y="70" width="16" height="6" rx="2" fill="#0f172a"/>
    <circle cx="178" cy="88" r="10" fill="#f8fafc"/>
    <rect x="168" y="100" width="20" height="40" rx="3" fill="#ffffff"/>

    <!-- Baris 2 Siswi Berjilbab -->
    <path d="M 330,80 Q 345,65 360,80 L 365,140 L 325,140 Z" fill="#ffffff"/>
    <circle cx="345" cy="92" r="8" fill="#fde68a"/>

    <path d="M 375,80 Q 390,65 405,80 L 410,140 L 370,140 Z" fill="#ffffff"/>
    <circle cx="390" cy="92" r="8" fill="#fde68a"/>
  </g>
  
  <text x="40" y="315" fill="#ffffff" font-family="'Plus Jakarta Sans', sans-serif" font-weight="800" font-size="20">Apel Peringatan Hari Santri Nasional</text>
  <text x="40" y="342" fill="#d1fae5" font-family="'Plus Jakarta Sans', sans-serif" font-size="13">Pembinaan Karakter Akhlakul Karimah &amp; Moderasi Beragama Peserta Didik</text>
</svg>
